<svg xmlns="http://www.w3.org/2000/svg" width="50" height="49.746" viewBox="0 0 50 49.746">
  <g id="Group_5284" data-name="Group 5284" transform="translate(-561.985 -969.164)">
    <path id="Path_6064" data-name="Path 6064" d="M589.911,1009.042c0-2.879.028-5.759-.016-8.638-.014-.935.315-1.265,1.239-1.225,1.291.057,2.588-.01,3.881.022.636.016.968-.224,1.047-.855.2-1.571.39-3.142.611-4.709.111-.791-.233-1.027-.978-1.012-1.585.032-3.171-.011-4.755.016-.743.013-1.064-.274-1.034-1.029a42.182,42.182,0,0,1,.094-4.458,2.723,2.723,0,0,1,2.982-2.69c1.033-.054,2.071-.046,3.1-.017.678.019,1.015-.174.991-.927-.043-1.39-.019-2.782-.011-4.173,0-.483-.126-.836-.685-.847a35.558,35.558,0,0,0-6.1-.073,8.009,8.009,0,0,0-7.26,8.192q-.062,2.474,0,4.949c.018.809-.306,1.094-1.088,1.075-1.358-.032-2.717.007-4.076-.011-.613-.008-.875.226-.865.858q.037,2.426,0,4.852c-.01.631.243.865.861.856,1.391-.021,2.782.012,4.173-.01.688-.01.992.243.99.964q-.023,8.88,0,17.76c0,1.059-.624.858-1.228.717a24.219,24.219,0,0,1-12.471-6.9c-7-7.413-9.112-16.133-5.8-25.725,3.3-9.563,10.322-15.254,20.37-16.617a25,25,0,0,1,14.693,46.956,23.586,23.586,0,0,1-7.323,2.477c-1.232.2-1.342.1-1.343-1.148Q589.906,1013.361,589.911,1009.042Z" fill="#2c52cb"/>
  </g>
</svg>
