<svg xmlns="http://www.w3.org/2000/svg" width="50" height="50" viewBox="0 0 50 50">
  <g id="Group_5286" data-name="Group 5286" transform="translate(-103 -874)">
    <circle id="Ellipse_1" data-name="Ellipse 1" cx="25" cy="25" r="25" transform="translate(103 874)" fill="#e9f0fe"/>
    <g id="Group_5280" data-name="Group 5280" transform="translate(-503.155 261.303)">
      <path id="Path_6060" data-name="Path 6060" d="M751.513,737.375a9.256,9.256,0,0,0,3.417-3.776,1.38,1.38,0,0,0,.226-.7h-1.306c-1.971,0-3.941-.01-5.912.009-.409,0-.569-.08-.561-.531.028-1.607.025-3.214,0-4.821-.006-.421.144-.5.528-.5,4.362.012,8.724.02,13.086-.008.549,0,.574.3.62.655a14.615,14.615,0,0,1-2.87,11.022,11.279,11.279,0,0,1-2.491,2.516Z" transform="translate(-115.887 -92.111)" fill="#528ef7"/>
      <path id="Path_6061" data-name="Path 6061" d="M631.263,630.935a14,14,0,0,1,8.034-7.041,14.43,14.43,0,0,1,13.859,2.078c.424.3.488.476.029.835-1.327,1.035-2.615,2.119-3.913,3.19a.536.536,0,0,1-.7.111,8.69,8.69,0,0,0-12.468,4.524,2.106,2.106,0,0,1-.109.2Z" transform="translate(-13.117)" fill="#f04437"/>
      <path id="Path_6062" data-name="Path 6062" d="M649.317,782.419l4.739,3.868a13.736,13.736,0,0,1-6.458,3.021,14.718,14.718,0,0,1-15.451-7.05c-.086-.148-.158-.3-.236-.458l4.745-3.858a8.747,8.747,0,0,0,4.767,4.946,8.589,8.589,0,0,0,7.48-.278C649.04,782.543,649.18,782.482,649.317,782.419Z" transform="translate(-13.692 -137.154)" fill="#29b447"/>
      <path id="Path_6063" data-name="Path 6063" d="M622.965,702.06l-4.745,3.858a14.373,14.373,0,0,1-.074-13.711l4.736,3.9A9.312,9.312,0,0,0,622.965,702.06Z" transform="translate(0 -61.272)" fill="#faba01"/>
    </g>
  </g>
</svg>
